<svg width="102" height="101" viewBox="0 0 102 101" fill="none" xmlns="http://www.w3.org/2000/svg">
<g id="Bomba">
<path d="M50.7682 0.321638C49.6784 0.471105 48.6819 1.17485 48.1899 2.15262C47.8162 2.88127 47.81 2.96846 47.81 7.77635C47.81 11.239 47.7913 12.1545 47.7353 12.1545C47.6917 12.1545 47.318 12.1981 46.9008 12.2417C43.1142 12.6901 39.8446 13.5059 36.5377 14.8325C35.3357 15.312 32.9878 16.4642 31.8419 17.1368C30.2475 18.0772 28.3356 19.4162 27.0278 20.506C26.7475 20.7427 26.4797 20.9357 26.4361 20.9357C26.3925 20.9357 24.9165 19.4971 23.1478 17.7346C19.6665 14.2595 19.6727 14.2657 18.7759 14.054C16.9947 13.6367 15.17 14.7266 14.7153 16.4891C14.5908 16.9686 14.5908 17.7471 14.7091 18.1955C14.9458 19.0923 14.952 19.0923 18.4334 22.5986L21.6718 25.8433L21.2359 26.3976C16.7207 32.1521 14.1486 38.6477 13.3764 46.2519L13.2705 47.3106L8.35673 47.3417L3.43674 47.3729L3.03193 47.5286C1.94206 47.9521 1.16359 48.8053 0.883333 49.864C0.765004 50.3373 0.765004 51.1345 0.883333 51.6078C1.16359 52.679 2.02303 53.5945 3.09421 53.9619C3.49902 54.0989 3.53639 54.0989 8.44392 54.1301L13.3888 54.1612L13.5321 55.1577C13.7127 56.3908 13.9306 57.5554 14.2233 58.7698C14.4725 59.8223 15.992 64.2503 16.4467 65.2654C17.8106 68.2922 19.6229 71.213 21.7154 73.7602C22.0953 74.2148 22.3943 74.6072 22.388 74.6321C22.3756 74.6632 20.7875 76.27 18.8506 78.2131C16.8453 80.2247 15.2385 81.8875 15.1264 82.0681C14.815 82.5601 14.6717 83.0521 14.6344 83.7123C14.5783 84.7461 14.8835 85.5495 15.6121 86.2781C16.3283 86.9943 17.1442 87.2995 18.1905 87.2497C18.8257 87.2185 19.299 87.0691 19.8035 86.7577C19.9965 86.6393 21.622 85.0699 23.7395 82.9587L27.3516 79.3652L28.1301 79.9507C32.7636 83.4632 37.9825 85.7425 44.2228 86.9819C45.3064 87.1998 47.1935 87.449 47.7291 87.449C47.7913 87.449 47.81 88.489 47.8225 92.7239L47.8412 98.0051L48.0031 98.4224C48.6508 100.091 50.3136 101.013 51.964 100.621C53.0663 100.359 53.9693 99.5683 54.3928 98.5034L54.5672 98.0674L54.5859 92.7239C54.5984 88.0032 54.6108 87.3867 54.698 87.3867C55.327 87.3867 58.1482 86.9445 59.6554 86.6082C64.8805 85.4374 70.0621 82.9525 74.3343 79.5521L74.9135 79.0912L78.507 82.666C80.5871 84.7399 82.225 86.328 82.4056 86.4401C83.7508 87.2684 85.4635 87.0628 86.572 85.9356C87.0889 85.4125 87.3131 85.0263 87.4813 84.36C87.6308 83.787 87.637 83.4569 87.5124 82.8715C87.3007 81.8875 87.3879 81.9872 83.427 78.0138C81.4403 76.0271 79.8211 74.3767 79.8211 74.3456C79.8211 74.3207 79.9954 74.0778 80.2134 73.8162C84.3176 68.8589 87.0018 62.8989 88.2909 55.9361C88.3906 55.3694 88.4777 54.7778 88.4777 54.6158C88.4777 54.4602 88.4964 54.2858 88.5151 54.2297C88.5525 54.1425 89.032 54.1301 93.3604 54.1301C98.5731 54.1301 98.5731 54.1301 99.2706 53.7813C99.7999 53.5135 100.223 53.1648 100.535 52.7226C101.27 51.695 101.382 50.3622 100.834 49.2288C100.473 48.4752 99.7065 47.8088 98.8782 47.5161L98.4734 47.3729L93.5783 47.3542L88.6895 47.3355L88.6085 46.5134C88.0231 40.0863 85.9555 34.0702 82.5924 29.0008C82.2063 28.4154 81.5898 27.5435 81.2223 27.0515L80.5497 26.1547L83.757 22.9411C86.9519 19.7338 86.9706 19.7213 87.2197 19.192C87.718 18.1457 87.718 17.1617 87.2197 16.1403C86.9582 15.5985 86.2793 14.9197 85.7375 14.6581C85.3078 14.4464 84.6227 14.272 84.2117 14.272C83.782 14.272 83.1094 14.4464 82.6236 14.683C82.1814 14.901 81.9821 15.0878 78.9865 18.0772L75.8166 21.2409L75.4367 20.9233C71.208 17.3734 66.8547 15.038 61.6981 13.5558C59.7239 12.989 57.239 12.4908 55.3021 12.2728L54.5984 12.1981V7.73898C54.5984 2.82522 54.5984 2.84391 54.2122 2.10279C53.932 1.57343 53.2407 0.900827 52.73 0.657942C52.0885 0.352778 51.4159 0.234448 50.7682 0.321638ZM36.9113 29.5924C37.7085 29.6796 38.3811 29.8665 39.0848 30.1903C42.6658 31.8656 43.8616 36.4057 41.5884 39.7002C40.7539 40.9022 39.3215 41.8862 37.8891 42.2412C37.2227 42.4031 36.0083 42.4654 35.3731 42.3595C32.9255 41.9734 30.97 40.3105 30.2226 38C29.6933 36.3808 29.7991 34.7553 30.534 33.2108C30.8703 32.4884 31.2876 31.9279 31.9104 31.33C33.0812 30.2152 34.3704 29.6859 36.2263 29.5426C36.2761 29.5364 36.5875 29.5613 36.9113 29.5924Z" fill="black"/>
<path d="M36.9113 29.5924C37.7085 29.6796 38.3811 29.8665 39.0848 30.1903C42.6658 31.8656 43.8616 36.4057 41.5884 39.7002C40.7539 40.9022 39.3215 41.8862 37.8891 42.2412C37.2227 42.4031 36.0083 42.4654 35.3731 42.3595C32.9255 41.9734 30.97 40.3105 30.2226 38C29.6933 36.3808 29.7991 34.7553 30.534 33.2108C30.8703 32.4884 31.2876 31.9279 31.9104 31.33C33.0812 30.2152 34.3704 29.6859 36.2263 29.5426C36.2761 29.5364 36.5875 29.5613 36.9113 29.5924Z" fill="white"/>
</g>
</svg>
